<svg 
    xmlns="http://www.w3.org/2000/svg" 
    viewBox="0 0 896.36 653.78">
        <defs>
            <!-- <style>
                .cls-1{fill:#efefef;}.cls-2{fill:#efefef;}
            </style> -->
        </defs>
        <g id="Colored">
            <path class="cls-1" d="M782.52,257.43a14.84,14.84,0,0,1,.23-10.48,180.74,180.74,0,0,0,12-49.59C804.34,98.41,731.9,10.43,633,.85A180.06,180.06,0,0,0,442.16,131.74a14.8,14.8,0,0,1-20.56,9.41,295.81,295.81,0,0,0-97.05-26.49C161.83,98.91,17.15,218.05,1.4,380.76A296.38,296.38,0,0,0,72.88,604.21a14.83,14.83,0,0,0,17.89,3.47L634.16,332.45a14.83,14.83,0,0,1,17.59,3.15L883.47,585.8c5.47,5.91,15.12.08,12.43-7.52Z"/>
            <path class="cls-2 text-primary fill-primary" d="M891.34,640.7,646.75,376.6a14.83,14.83,0,0,0-17.59-3.15L103.41,639.74c-7,3.53-4.45,14,3.36,14l538.06-.44a14.84,14.84,0,0,0,14.83-14.84V572.64A14.84,14.84,0,0,1,674.5,557.8h28.31a14.85,14.85,0,0,1,14.85,14.84v65.8a14.84,14.84,0,0,0,14.85,14.84l153.4-.13A7.41,7.41,0,0,0,891.34,640.7ZM591.81,538.8H547.5A14.83,14.83,0,0,1,532.66,524V479.64A14.84,14.84,0,0,1,547.5,464.8h44.31a14.85,14.85,0,0,1,14.85,14.84V524A14.84,14.84,0,0,1,591.81,538.8Z"/>
        </g>
</svg>

