<?xml version="1.0" encoding="UTF-8" standalone="no"?>
<svg
   data-name="Layer 1"
   width="807.45276"
   height="499.98424"
   viewBox="0 0 807.45276 499.98424"
   version="1.1"
   id="svg33"
   sodipodi:docname="security.svg"
   inkscape:version="1.3.2 (091e20ef0f, 2023-11-25, custom)"
   xmlns:inkscape="http://www.inkscape.org/namespaces/inkscape"
   xmlns:sodipodi="http://sodipodi.sourceforge.net/DTD/sodipodi-0.dtd"
   xmlns="http://www.w3.org/2000/svg"
   xmlns:svg="http://www.w3.org/2000/svg">
  <defs
     id="defs33" />
  <sodipodi:namedview
     id="namedview33"
     pagecolor="#ffffff"
     bordercolor="#000000"
     borderopacity="0.25"
     inkscape:showpageshadow="2"
     inkscape:pageopacity="0.0"
     inkscape:pagecheckerboard="0"
     inkscape:deskcolor="#d1d1d1"
     inkscape:zoom="2.380075"
     inkscape:cx="403.7688"
     inkscape:cy="249.99213"
     inkscape:window-width="3420"
     inkscape:window-height="1396"
     inkscape:window-x="10"
     inkscape:window-y="34"
     inkscape:window-maximized="1"
     inkscape:current-layer="svg33" />
  <rect
     id="fc777aff-63b1-4720-84dc-e3a9c20790b9"
     data-name="ab2e16f2-9798-47da-b25d-769524f3c86f"
     x="4.956593"
     y="123.93158"
     width="595.3407"
     height="251.29683"
     transform="matrix(0.99192525,-0.12682386,0.16108317,0.98694084,0,0)"
     fill="#f1f1f1"
     style="stroke-width:1.28432"
     />

  <rect
     id="ecffa418-b240-4504-be04-512edea7ccda"
     data-name="bf81c03f-68cf-4889-8697-1102f95f97bb"
     x="21.980564"
     y="145.48074"
     width="561.29364"
     height="209.66481"
     transform="matrix(0.99192525,-0.12682386,0.16108317,0.98694084,0,0)"
     fill="#ffffff"
     style="stroke-width:1.28432" />
  <rect
     id="b49ce3f1-9d75-4481-986b-3b6beb000c79"
     data-name="f065dccc-d150-492a-a09f-a7f3f89523f0"
     x="4.702754"
     y="109.41269"
     width="595.34082"
     height="22.498312"
     transform="matrix(0.99192525,-0.12682386,0.16108317,0.98694084,0,0)"
     fill="#e5e5e5"
     style="stroke-width:1.28432" />
  <circle
     id="a4219562-805a-49cd-8b89-b1f92f7a9e75"
     data-name="bdbbf39c-df25-4682-8b85-5a6af4a1bd14"
     cx="40.676155"
     cy="118.06054"
     fill="#ffffff"
     style="stroke-width:1.20791"
     r="4.1582427" />
  <circle
     id="b0f6399c-6944-4f74-a888-473f61f9730c"
     data-name="abcd4292-0b1f-4102-9b5e-e8bbd87baabc"
     cx="56.297306"
     cy="115.80396"
     fill="#ffffff"
     style="stroke-width:1.20791"
     r="4.1582427" />
  <circle
     id="b03f93dc-2c99-4323-9b17-02f51b8830c0"
     data-name="a3fb731e-8b3d-41ca-96f2-91600dc0b434"
     cx="71.919197"
     cy="113.54725"
     fill="#ffffff"
     style="stroke-width:1.20791"
     r="4.1582427" />
  <rect
     id="a6067cfc-0392-4d68-afe4-e34d11a8f0ac"
     data-name="ab2e16f2-9798-47da-b25d-769524f3c86f"
     x="154.40459"
     y="152.89659"
     width="596.66333"
     height="250.58954"
     fill="#e6e6e6"
     style="stroke-width:1.28394" />
  <rect
     id="ecd65817-7467-4dbd-a435-c0f1d9841c98"
     data-name="bf81c03f-68cf-4889-8697-1102f95f97bb"
     x="171.46638"
     y="174.38509"
     width="562.54059"
     height="209.07469"
     fill="#ffffff"
     style="stroke-width:1.28394" />
  <rect
     id="eea6c39d-8a45-4eb1-bab9-6120f465de14"
     data-name="f065dccc-d150-492a-a09f-a7f3f89523f0"
     x="154.15016"
     y="138.41856"
     width="596.66339"
     height="22.434988"
     fill="#cbcbcb"
     style="stroke-width:1.28394" />
  <circle
     id="ab9e51f9-7431-4d30-8193-f9435a6bd5c3"
     data-name="bdbbf39c-df25-4682-8b85-5a6af4a1bd14"
     cx="172.10915"
     cy="150.61073"
     fill="#ffffff"
     style="stroke-width:1.20791"
     r="4.1582427" />
  <circle
     id="a54ed687-3b0d-413b-b405-af8897a5c032"
     data-name="abcd4292-0b1f-4102-9b5e-e8bbd87baabc"
     cx="187.89246"
     cy="150.61073"
     fill="#ffffff"
     style="stroke-width:1.20791"
     r="4.1582427" />
  <circle
     id="fd1d2195-7e97-488f-8f4b-7061a06deb9a"
     data-name="a3fb731e-8b3d-41ca-96f2-91600dc0b434"
     cx="203.6765"
     cy="150.61073"
     fill="#ffffff"
     style="stroke-width:1.20791"
     r="4.1582427" />
  <rect
     x="441.22293"
     y="206.17216"
     width="70.121941"
     height="5.2705374"
     fill="#e6e6e6"
     id="rect7"
     style="stroke-width:1.20791" />
  <rect
     x="441.22293"
     y="221.64468"
     width="108.28358"
     height="5.2705131"
     fill="#e6e6e6"
     id="rect8"
     style="stroke-width:1.20791" />
  <rect
     x="442.34879"
     y="236.38019"
     width="88.248726"
     height="5.2705131"
     fill="#e6e6e6"
     id="rect9"
     style="stroke-width:1.20791" />
  <rect
     x="441.22293"
     y="252.54839"
     width="51.518166"
     height="5.2705131"
     fill="#e6e6e6"
     id="rect10"
     style="stroke-width:1.20791" />
  <rect
     x="441.22293"
     y="268.34131"
     width="77.754272"
     height="5.2705131"
     fill="#e6e6e6"
     id="rect11"
     style="stroke-width:1.20791" />
  <rect
     x="409.26254"
     y="204.51425"
     width="8.5863686"
     height="8.5863571"
     fill="#e6e6e6"
     id="rect12"
     style="stroke-width:1.20791" />
  <rect
     x="409.26254"
     y="219.98674"
     width="8.5863686"
     height="8.5863447"
     fill="#e6e6e6"
     id="rect13"
     style="stroke-width:1.20791" />
  <rect
     x="409.26254"
     y="234.72227"
     width="8.5863686"
     height="8.5863686"
     fill="#e6e6e6"
     id="rect14"
     style="stroke-width:1.20791" />
  <rect
     x="409.26254"
     y="250.8905"
     width="8.5863686"
     height="8.5863686"
     fill="#e6e6e6"
     id="rect15"
     style="stroke-width:1.20791" />
  <rect
     x="409.26254"
     y="266.68344"
     width="8.5863686"
     height="8.5863686"
     fill="#e6e6e6"
     id="rect16"
     style="stroke-width:1.20791" />
  <rect
     x="441.22293"
     y="284.23297"
     width="70.121941"
     height="5.2705131"
     fill="#e6e6e6"
     id="rect17"
     style="stroke-width:1.20791" />
  <rect
     x="441.22293"
     y="299.70554"
     width="108.28358"
     height="5.2705131"
     fill="#e6e6e6"
     id="rect18"
     style="stroke-width:1.20791" />
  <rect
     x="442.34879"
     y="314.44101"
     width="88.248726"
     height="5.2705131"
     fill="#e6e6e6"
     id="rect19"
     style="stroke-width:1.20791" />
  <rect
     x="441.22293"
     y="330.60925"
     width="51.518166"
     height="5.2705131"
     fill="#e6e6e6"
     id="rect20"
     style="stroke-width:1.20791" />
  <rect
     x="441.22293"
     y="346.40216"
     width="77.754272"
     height="5.2705131"
     fill="#e6e6e6"
     id="rect21"
     style="stroke-width:1.20791" />
  <rect
     x="409.26254"
     y="282.57507"
     width="8.5863686"
     height="8.5863686"
     fill="#e6e6e6"
     id="rect22"
     style="stroke-width:1.20791" />
  <rect
     x="409.26254"
     y="298.04758"
     width="8.5863686"
     height="8.5863447"
     fill="#e6e6e6"
     id="rect23"
     style="stroke-width:1.20791" />
  <rect
     x="409.26254"
     y="312.78308"
     width="8.5863686"
     height="8.5863686"
     fill="#e6e6e6"
     id="rect24"
     style="stroke-width:1.20791" />
  <rect
     x="409.26254"
     y="328.95132"
     width="8.5863686"
     height="8.5863686"
     fill="#e6e6e6"
     id="rect25"
     style="stroke-width:1.20791" />
  <rect
     x="409.26254"
     y="344.74426"
     width="8.5863686"
     height="8.5863686"
     fill="#e6e6e6"
     id="rect26"
     style="stroke-width:1.20791" />
  <rect
     x="219.39334"
     y="325.57504"
     width="70.121956"
     height="5.2705255"
     fill="#e6e6e6"
     id="rect27"
     style="stroke-width:1.20791" />
  <rect
     x="210.01105"
     y="339.27014"
     width="88.248726"
     height="5.2705131"
     fill="#e6e6e6"
     id="rect28"
     style="stroke-width:1.20791" />
  <path
     d="m 300.03015,259.08986 a 45.802536,45.802536 0 0 1 -67.49602,40.32257 l -0.008,-0.008 a 45.788379,45.788379 0 1 1 67.50492,-40.31365 z"
     fill="#e6e6e6"
     id="path28"
     style="stroke-width:1.20791" />
  <circle
     cx="254.4778"
     cy="244.42067"
     fill="#ffffff"
     id="circle28"
     style="stroke-width:1.20791"
     r="12.446594" />
  <path
     d="m 275.7304,282.58495 a 64.152965,64.152965 0 0 1 -42.96293,-0.16639 l -0.008,-0.006 9.27267,-18.30386 h 24.89317 z"
     fill="#ffffff"
     id="path29"
     style="stroke-width:1.20791" />
  <path
     d="m 116.67221,372.73922 c -21.694299,0 -39.344042,-18.74869 -39.344042,-41.79462 0,-23.04527 17.649743,-41.79397 39.344042,-41.79397 21.69429,0 39.34404,18.7487 39.34404,41.79397 0,23.04593 -17.64975,41.79462 -39.34404,41.79462 z m 0,-73.02828 c -15.87143,0 -28.783725,14.01126 -28.783725,31.23366 0,17.22241 12.912295,31.2343 28.783725,31.2343 15.87143,0 28.78371,-14.01189 28.78371,-31.2343 0,-17.2224 -12.91228,-31.23366 -28.78371,-31.23366 z"
     fill="#8f36ce"
     id="path30"
     style="stroke-width:1.20791" />
  <path
     d="M 153.92952,445.57543 H 79.414899 A 24.812211,24.812211 0 0 1 54.630301,420.79115 V 347.70036 A 16.987565,16.987565 0 0 1 71.59843,330.7319 h 90.14756 a 16.987565,16.987565 0 0 1 16.96812,16.96846 v 73.09079 a 24.812211,24.812211 0 0 1 -24.78459,24.78428 z"
     fill="#3f3d56"
     id="path31"
     style="stroke-width:1.20791" />
  <path
     d="M 131.19266,372.31318 A 14.52045,14.52045 0 1 0 110.072,385.23579 v 22.71844 h 13.2004 v -22.71844 a 14.508105,14.508105 0 0 0 7.92026,-12.92261 z"
     fill="#ffffff"
     id="path32"
     style="stroke-width:1.20791" />
  <path
     d="m 153.40499,635.82181 h -460.21506 a 1.2079136,1.2079136 0 0 1 0,-2.41582 h 460.21506 a 1.2079136,1.2079136 0 0 1 0,2.41582 z"
     fill="#3f3d56"
     id="path33"
     style="stroke-width:1.20791" />
</svg>
